<svg width="77" height="79" viewBox="0 0 77 79" fill="none" xmlns="http://www.w3.org/2000/svg">
<path d="M39.2528 1.36937C40.5846 2.52599 41.4058 3.99049 41.7204 5.74962C41.7397 6.30333 41.7397 6.30333 41.7204 6.69884C41.8895 6.71768 42.0587 6.73652 42.2329 6.75594C43.0416 6.86006 43.8326 7.03357 44.629 7.20902C44.7922 7.24453 44.9554 7.28004 45.1236 7.31663C45.4761 7.3934 45.8286 7.47041 46.1811 7.54763C46.7387 7.66977 47.2964 7.79123 47.8541 7.91251C49.2383 8.21364 50.6224 8.51581 52.0063 8.81818C53.1779 9.07412 54.3495 9.32955 55.5213 9.58426C56.0712 9.704 56.6209 9.82449 57.1706 9.945C57.5067 10.0181 57.8427 10.0912 58.1788 10.1642C58.3319 10.198 58.485 10.2318 58.6427 10.2666C58.7833 10.2969 58.9239 10.3273 59.0687 10.3586C59.1906 10.3853 59.3124 10.4119 59.438 10.4393C59.818 10.5128 59.818 10.5128 60.3903 10.4957C60.4374 10.3903 60.4846 10.2848 60.5332 10.1762C61.5821 8.00997 63.2622 6.52201 65.4628 5.69029C67.8146 5.01193 70.3366 5.28033 72.464 6.50108C74.506 7.8618 75.9107 9.76865 76.4372 12.2359C76.6654 15.1114 76.2663 17.4771 74.4265 19.7407C73.3679 20.9048 72.1253 21.8087 70.5739 22.0445C70.5971 22.2399 70.6203 22.4353 70.6442 22.6366C70.8629 24.48 71.0809 26.3235 71.2981 28.1671C71.4098 29.1149 71.5218 30.0626 71.6344 31.0102C71.7431 31.9251 71.8511 32.8401 71.9585 33.7552C71.9996 34.1039 72.041 34.4525 72.0826 34.8012C72.1409 35.2903 72.1983 35.7796 72.2555 36.2689C72.2728 36.4123 72.2901 36.5557 72.308 36.7034C72.4022 37.5191 72.4418 38.309 72.4255 39.1305C72.5114 39.1423 72.5973 39.1541 72.6858 39.1663C74.0111 39.4004 74.938 40.1251 75.7706 41.1933C76.6538 42.5383 76.7925 43.9588 76.524 45.5396C76.1399 46.9497 75.1983 48.0095 73.995 48.7568C72.8035 49.4049 71.4087 49.4491 70.105 49.1467C68.7559 48.6894 67.921 47.9785 67.186 46.744C66.5445 45.4039 66.4911 43.7709 66.8171 42.3217C67.3553 40.9672 68.2832 40.1415 69.4938 39.4469C69.2976 37.2468 69.0723 35.0523 68.8176 32.8586C68.7834 32.5618 68.7492 32.2651 68.7151 31.9684C68.6267 31.1998 68.5378 30.4313 68.4488 29.6629C68.3575 28.8737 68.2666 28.0844 68.1757 27.2952C67.9983 25.7559 67.8204 24.2166 67.6423 22.6774C67.5162 22.6457 67.5162 22.6457 67.3877 22.6134C67.0026 22.5157 66.6182 22.4158 66.2337 22.3158C66.1016 22.2827 65.9694 22.2495 65.8332 22.2153C64.9316 21.9787 64.2126 21.6654 63.4624 21.0861C63.1726 20.8969 63.1726 20.8969 62.8633 21.0311C62.5001 21.2893 62.1813 21.5691 61.8561 21.8764C61.7209 22.0035 61.5856 22.1306 61.4463 22.2615C61.3015 22.3987 61.1567 22.5359 61.0075 22.6774C60.7773 22.894 60.5469 23.1105 60.3165 23.3269C60.1591 23.4748 60.0018 23.6228 59.8445 23.7708C59.2363 24.3435 58.6229 24.9101 58.0083 25.4756C57.5657 25.8851 57.1262 26.298 56.6872 26.7115C56 27.3588 55.3083 28.0006 54.6138 28.6396C54.1712 29.0492 53.7317 29.462 53.2927 29.8756C52.0184 31.0755 50.7298 32.2585 49.4352 33.4352C49.4913 33.5333 49.5474 33.6313 49.6052 33.7324C51.6147 37.3618 52.2781 41.0473 51.2868 45.1422C50.9197 46.4545 50.3433 47.5576 49.5949 48.6753C49.1241 49.3086 49.1241 49.3086 48.9723 50.0465C49.2459 50.3827 49.5084 50.6628 49.821 50.9562C50.351 51.4671 50.8611 51.9788 51.335 52.5456C51.9753 53.3079 52.6709 54.0082 53.3698 54.7135C54.1551 55.506 54.9174 56.3019 55.6351 57.1591C56.1886 57.7961 56.7888 58.3868 57.3815 58.985C58.1762 59.7869 58.9521 60.5919 59.6792 61.459C60.0644 61.9161 60.4638 62.3568 60.8725 62.7917C60.9495 62.8779 61.0264 62.9641 61.1057 63.0528C61.3583 63.3306 61.3583 63.3306 61.779 63.652C62.2853 63.6396 62.6689 63.4484 63.1291 63.2466C64.6119 62.733 66.4554 62.8166 67.8864 63.4536C69.6225 64.3767 70.9855 65.6786 71.6046 67.6194C72.0858 69.4986 71.8459 71.3431 70.9928 73.0712C70.0604 74.6211 68.7381 75.6044 67.0829 76.1896C65.2559 76.5928 63.4042 76.3463 61.7772 75.4072C60.2568 74.3566 59.274 72.9241 58.8473 71.0875C58.8435 70.7711 58.8431 70.4547 58.8473 70.1383C58.679 70.1202 58.5106 70.1022 58.3371 70.0835C56.6517 69.8992 54.9769 69.6697 53.3011 69.4103C53.0491 69.3717 52.797 69.3331 52.545 69.2946C51.8921 69.1947 51.2392 69.0941 50.5864 68.9935C49.916 68.8902 49.2456 68.7875 48.5751 68.6848C47.2674 68.4843 45.9597 68.2832 44.652 68.0816C44.5813 68.2684 44.5813 68.2684 44.5092 68.4589C44.0434 69.6215 43.1233 70.2774 42.029 70.7711C40.9306 71.1563 39.2313 71.1308 38.1716 70.6722C37.8557 70.4955 37.8557 70.4955 37.5544 70.2965C37.4454 70.2276 37.3364 70.1586 37.2241 70.0876C36.2797 69.4313 35.7828 68.6535 35.346 67.5873C35.0427 65.8345 35.1128 64.2745 36.1187 62.7917C36.9359 61.7604 37.9655 61.0571 39.2516 60.8043C40.8399 60.646 42.169 60.8876 43.4719 61.8685C44.2832 62.6255 44.7787 63.534 45.1149 64.6012C45.1149 64.81 45.1149 65.0188 45.1149 65.234C45.2849 65.2442 45.2849 65.2442 45.4584 65.2547C46.9298 65.3558 48.3749 65.5634 49.8318 65.7883C50.0873 65.8272 50.3428 65.866 50.5983 65.9047C51.2643 66.0058 51.9301 66.1077 52.596 66.2098C53.6668 66.3739 54.7379 66.537 55.8089 66.6997C56.1819 66.7565 56.5548 66.8138 56.9277 66.8712C57.1551 66.9059 57.3826 66.9405 57.61 66.9752C57.8085 67.0056 58.007 67.0361 58.2115 67.0674C58.6886 67.1428 58.6886 67.1428 59.1559 67.1324C59.4208 66.6948 59.4208 66.6948 59.6188 66.1832C59.4256 65.5913 59.0136 65.1818 58.6063 64.7297C58.5339 64.6494 58.4616 64.5691 58.387 64.4864C57.5914 63.6126 56.763 62.7717 55.9316 61.9339C55.4239 61.4198 54.9314 60.9025 54.4668 60.347C53.8073 59.5615 53.0866 58.8418 52.3669 58.1149C50.8812 56.6143 50.8812 56.6143 50.2833 55.8988C49.5121 54.9761 48.6491 54.1437 47.8016 53.2958C47.6742 53.167 47.5468 53.0381 47.4155 52.9053C47.2996 52.7891 47.1836 52.6728 47.0642 52.5531C46.8122 52.2613 46.8122 52.2613 46.8122 51.9449C46.5684 52.1025 46.5684 52.1025 46.3198 52.2632C43.0884 54.3087 39.5611 55.2161 35.7992 54.3674C34.0557 53.9394 32.6215 53.2795 31.1655 52.194C30.7554 51.8902 30.7554 51.8902 30.1481 51.9449C29.8634 52.1464 29.8634 52.1464 29.6019 52.4356C29.4978 52.5429 29.3937 52.6502 29.2865 52.7607C29.1199 52.9372 29.1199 52.9372 28.9499 53.1172C28.8338 53.2375 28.7178 53.3578 28.5982 53.4817C28.2261 53.8678 27.8563 54.2559 27.4865 54.6443C27.1186 55.0283 26.7502 55.4118 26.3814 55.795C26.1521 56.0335 25.9233 56.2726 25.6951 56.5124C25.0944 57.14 24.4772 57.7301 23.8273 58.3037C23.2445 58.8342 22.7015 59.4059 22.1536 59.9737C22.0281 60.103 21.9027 60.2322 21.7734 60.3654C21.3758 60.775 20.9787 61.1851 20.5817 61.5953C20.0582 62.1363 19.5342 62.6768 19.0098 63.2169C18.8918 63.3392 18.7738 63.4615 18.6522 63.5875C18.018 64.2408 17.3695 64.8638 16.6882 65.4651C16.3403 65.776 16.0127 66.1039 15.6876 66.4397C15.5663 66.5646 15.445 66.6895 15.3199 66.8182C15.1978 66.9447 15.0757 67.0713 14.9499 67.2016C14.823 67.3325 14.6961 67.4633 14.5653 67.5981C14.256 67.9171 13.947 68.2365 13.6384 68.5563C13.6853 68.6998 13.6853 68.6998 13.7332 68.8462C13.7745 68.9728 13.8158 69.0994 13.8583 69.2299C13.9196 69.4174 13.9196 69.4174 13.9821 69.6088C14.5951 71.5191 14.5988 73.3514 13.7734 75.2008C12.8894 76.9024 11.5882 78.0193 9.81951 78.6615C7.99226 79.1564 6.22208 78.8807 4.57341 77.9891C2.92338 76.9841 2.04057 75.6255 1.4489 73.777C1.03992 72.0647 1.34454 70.2601 2.16976 68.7194C2.90139 67.5721 3.68853 66.7916 4.89286 66.2135C4.99232 66.1642 5.09178 66.1149 5.19425 66.0641C5.43668 65.9442 5.68001 65.8262 5.92351 65.7086C5.91497 65.5383 5.90643 65.3679 5.89763 65.1924C5.58532 58.962 5.58532 58.962 5.46062 56.3746C5.36865 56.3559 5.27669 56.3372 5.18194 56.3179C3.3999 55.9373 2.04576 55.0426 1.02458 53.4874C0.0426223 51.8041 -0.181787 50.1219 0.132556 48.1746C0.602606 46.353 1.66649 44.9456 3.21548 43.9501C4.64088 43.1632 6.34228 42.7877 7.92937 43.2438C7.9685 43.1139 8.00764 42.9839 8.04796 42.8501C8.26596 42.2127 8.53101 41.6108 8.80934 40.9993C8.86493 40.8759 8.92052 40.7526 8.9778 40.6255C9.15504 40.2324 9.33292 39.8396 9.51091 39.4469C10.4757 37.3186 10.4757 37.3186 11.4083 35.1754C11.482 35.0025 11.5558 34.8295 11.6317 34.6514C11.8138 34.2277 11.8138 34.2277 11.7868 33.7516C11.5456 33.4878 11.5456 33.4878 11.2275 33.2374C9.62212 31.8469 8.71517 30.2045 8.39226 28.0563C8.21008 25.6484 8.6557 23.4051 10.101 21.4544C11.563 19.7251 13.2246 18.5362 15.4899 18.2477C18.1307 18.0976 20.0975 18.6436 22.3176 20.1758C24.0656 22.0088 25.1046 24.0498 25.2106 26.6324C25.1577 29.1418 24.3156 31.4065 22.5279 33.1645C20.3783 35.0121 18.0787 35.525 15.3356 35.3336C15.0771 35.2886 14.8187 35.2399 14.5641 35.1754C14.538 35.2615 14.5119 35.3476 14.4851 35.4363C14.2038 36.3356 13.8616 37.1837 13.4702 38.0379C13.4107 38.1694 13.3511 38.301 13.2898 38.4365C13.1013 38.8528 12.9118 39.2685 12.7222 39.6842C12.5334 40.1 12.3448 40.5159 12.1563 40.9318C12.0395 41.1892 11.9226 41.4465 11.8054 41.7037C11.6978 41.9403 11.5909 42.1772 11.4849 42.4146C11.3723 42.6627 11.2553 42.9087 11.1353 43.153C11.0759 43.2779 11.0165 43.4028 10.9553 43.5314C10.9003 43.6433 10.8453 43.7551 10.7887 43.8703C10.6729 44.1993 10.6729 44.1993 10.8302 44.5323C11.0386 44.8628 11.2723 45.1332 11.5361 45.4191C12.9037 46.9904 13.1573 48.793 13.0513 50.8316C12.8907 52.5489 11.8563 54.0989 10.5874 55.1764C9.15264 56.2164 9.15264 56.2164 8.39226 56.2164C8.39806 56.303 8.40386 56.3896 8.40983 56.4788C8.47071 57.3901 8.53064 58.3013 8.59003 59.2127C8.61224 59.5516 8.63469 59.8905 8.65738 60.2294C8.89896 63.8412 8.89896 63.8412 8.85515 65.5504C9.01628 65.5796 9.01628 65.5796 9.18066 65.6093C10.0077 65.7615 10.7205 65.9698 11.4782 66.3414C12.3228 65.6023 13.1235 64.8327 13.9036 64.0227C14.0119 63.9111 14.1202 63.7994 14.2319 63.6843C14.5745 63.3311 14.9165 62.9775 15.2585 62.6236C15.7097 62.1568 16.1614 61.6905 16.6134 61.2245C16.7145 61.1195 16.8157 61.0145 16.9199 60.9063C17.5034 60.3049 18.1057 59.7391 18.732 59.1848C19.2533 58.7108 19.7403 58.2028 20.2297 57.6946C20.3381 57.5829 20.4464 57.4713 20.558 57.3562C20.9006 57.003 21.2427 56.6493 21.5846 56.2955C22.0358 55.8287 22.4875 55.3624 22.9396 54.8964C23.0407 54.7914 23.1418 54.6864 23.246 54.5782C23.8381 53.968 24.4489 53.3918 25.0844 52.8294C25.4465 52.5046 25.7878 52.162 26.1268 51.8121C26.255 51.68 26.3833 51.548 26.5155 51.4119C26.645 51.2778 26.7745 51.1437 26.9079 51.0056C27.1093 50.798 27.1093 50.798 27.3147 50.5863C27.6424 50.2485 27.9696 49.9104 28.2966 49.5719C28.2164 49.4322 28.1362 49.2925 28.0537 49.1486C25.9827 45.5095 25.1147 42.0176 26.102 37.8309C26.6335 35.9015 27.4769 34.1617 28.7594 32.6441C28.8527 32.5259 28.946 32.4076 29.0421 32.2857C31.1207 29.7335 34.3349 28.2298 37.5314 27.9336C40.744 27.711 43.7236 28.4835 46.3493 30.4293C46.4794 30.548 46.6095 30.6667 46.7435 30.789C47.0875 31.0946 47.0875 31.0946 47.4414 31.0584C47.8093 30.8668 48.0348 30.6397 48.3166 30.3304C48.7061 29.9158 49.0951 29.5178 49.522 29.1439C50.1526 28.5883 50.7578 28.0067 51.3639 27.4234C52.0445 26.7691 52.7277 26.122 53.4349 25.4978C53.9664 25.0184 54.4831 24.5225 55.0023 24.0291C55.6345 23.4289 56.2728 22.8362 56.9144 22.2466C57.4341 21.7665 57.9492 21.2813 58.4639 20.7956C59.1062 20.1903 59.7571 19.5952 60.4114 19.0035C60.7109 18.7423 60.7109 18.7423 60.8532 18.4059C60.7458 18.1079 60.6243 17.8152 60.4964 17.5259C59.9185 16.145 59.7279 14.9993 59.7731 13.5016C59.5786 13.4827 59.3841 13.4639 59.1836 13.4445C58.3453 13.3484 57.5305 13.1753 56.7069 12.9914C56.5451 12.9559 56.3834 12.9204 56.2167 12.8838C55.8679 12.8071 55.5191 12.7301 55.1704 12.6528C54.6187 12.5305 54.0668 12.4091 53.5148 12.2879C52.3444 12.0308 51.1743 11.7725 50.0042 11.5141C48.6454 11.2142 47.2864 10.9146 45.9272 10.6161C45.3832 10.4964 44.8393 10.3759 44.2954 10.2554C43.963 10.1823 43.6306 10.1092 43.2981 10.0362C43.071 9.98554 43.071 9.98554 42.8393 9.93385C42.7002 9.90346 42.5612 9.87308 42.4179 9.84177C42.2371 9.80183 42.2371 9.80183 42.0527 9.76108C41.675 9.68748 41.675 9.68748 41.1032 9.7047C40.8626 9.98019 40.8626 9.98019 40.6692 10.3474C39.7507 11.8384 38.5725 12.819 36.8763 13.2871C34.6678 13.5961 32.754 13.2933 30.9479 11.8948C29.8154 10.9143 28.8647 9.51439 28.7321 7.96071C28.6696 5.72683 28.8109 4.01368 30.3024 2.26915C30.4158 2.12537 30.4158 2.12537 30.5315 1.9787C32.7111 -0.554817 36.7093 -0.541177 39.2528 1.36937ZM32.4156 4.16573C31.7085 5.02595 31.417 5.96479 31.4681 7.08631C31.6606 8.21674 32.2219 9.14215 33.1087 9.83385C34.0087 10.4365 34.8035 10.6317 35.8571 10.4957C36.8519 10.2556 37.6464 9.76761 38.2403 8.90688C38.8169 7.92551 39.0715 7.05613 38.8466 5.90782C38.4728 4.63853 37.8644 3.87319 36.7226 3.23938C35.1739 2.55002 33.6117 2.98152 32.4156 4.16573ZM63.9669 10.1608C62.7553 11.7027 62.5233 13.3187 62.7048 15.2418C62.9898 16.6777 63.9318 17.787 65.0427 18.6697C66.3047 19.5166 67.7144 19.8283 69.2045 19.5627C70.5666 19.2294 71.6538 18.5427 72.5798 17.4566C73.5272 15.8714 73.8942 14.4483 73.5887 12.5956C73.2025 11.0907 72.259 9.96799 71.0368 9.07188C68.5969 7.71185 65.9199 8.08951 63.9669 10.1608ZM12.4233 23.2014C11.539 24.4694 10.9967 25.8455 11.1696 27.4234C11.5682 29.371 12.3673 30.6905 13.997 31.7833C15.3476 32.5293 16.7914 32.6997 18.2673 32.308C19.8617 31.763 21.1012 30.6519 21.874 29.1241C22.4804 27.8157 22.4754 26.2841 22.0282 24.9219C21.4055 23.389 20.3709 22.1641 18.8555 21.5186C16.503 20.723 14.0617 21.149 12.4233 23.2014ZM30.7165 34.8052C29.2943 36.684 28.5408 38.8693 28.5569 41.2366C28.5576 41.3676 28.5582 41.4986 28.5589 41.6336C28.5779 42.6981 28.7295 43.6577 29.068 44.6676C29.1092 44.8014 29.1504 44.9351 29.1928 45.073C29.5745 46.1861 30.2128 47.0684 30.9196 47.9899C31.0202 48.1247 31.1209 48.2595 31.2246 48.3983C32.8973 50.4478 35.5135 51.5062 38.0462 51.767C40.6649 51.8979 43.0544 51.0688 45.1149 49.4137C45.2245 49.3274 45.3341 49.2412 45.447 49.1523C47.2315 47.6597 48.5121 45.263 48.818 42.9274C49.0495 39.9813 48.6018 37.1896 46.7332 34.8281C44.9686 32.7156 42.6023 31.118 39.8467 30.8747C36.1599 30.653 33.1418 31.9495 30.7165 34.8052ZM69.9169 42.6919C69.5051 43.3489 69.396 43.8795 69.4938 44.6676C69.7609 45.4027 70.0695 45.8444 70.7282 46.2496C71.6515 46.4787 72.201 46.4477 73.0427 45.9332C73.5554 45.3806 73.7031 44.9374 73.737 44.193C73.7054 43.4512 73.537 43.0144 73.0427 42.4527C72.5041 41.9926 72.0453 41.9004 71.3436 41.9343C70.7466 42.0196 70.3073 42.2108 69.9169 42.6919ZM3.91765 47.0406C3.15811 47.9917 2.75849 48.9686 2.83757 50.2047C3.03336 51.4484 3.69547 52.3567 4.6602 53.1135C5.53752 53.6476 6.47386 53.6752 7.46648 53.527C8.60226 53.172 9.37545 52.5442 9.93523 51.4703C10.3702 50.4394 10.3148 49.3308 9.97863 48.2741C9.5668 47.3204 8.94587 46.6364 7.99567 46.2441C6.51017 45.7667 5.11135 45.9631 3.91765 47.0406ZM38.7887 64.1266C38.2702 64.6855 38.1303 65.1246 38.1041 65.8767C38.1334 66.5252 38.204 66.9486 38.6344 67.4488C39.225 67.9699 39.69 68.1898 40.4824 68.1416C41.0338 68.0357 41.4554 67.8322 41.8747 67.4488C42.327 66.7097 42.4121 66.1009 42.2815 65.2575C42.1103 64.6651 41.8595 64.3866 41.4118 63.9684C40.4285 63.5157 39.7306 63.6092 38.7887 64.1266ZM62.5505 66.9742C61.7397 68.0669 61.458 69.0839 61.6247 70.4547C61.9686 71.5332 62.526 72.39 63.4762 72.9859C64.4392 73.486 65.364 73.5937 66.4079 73.3024C67.5082 72.8254 68.2228 72.2048 68.7223 71.0875C69.0463 70.091 69.0634 68.8217 68.6355 67.8542C67.9977 66.774 67.1802 66.2704 66.0113 65.9373C64.7555 65.7013 63.5189 66.1393 62.5505 66.9742ZM4.99773 69.8219C4.21821 70.932 4.11091 71.7971 4.22624 73.1441C4.49644 74.1923 5.20785 74.9353 6.07781 75.5172C7.03366 75.9764 7.98632 76.1409 9.00945 75.8336C10.1137 75.3309 10.9959 74.4417 11.4782 73.3024C11.7469 72.2376 11.6112 71.2909 11.1696 70.2965C10.6183 69.4017 9.8624 68.7702 8.86299 68.4642C7.33991 68.1459 6.00163 68.5867 4.99773 69.8219Z" fill="#006859"/>
</svg>
